<svg width="271" height="276" viewBox="0 0 271 276" fill="none" xmlns="http://www.w3.org/2000/svg">
<path d="M116.438 87.4899L114.023 87.3834C114.167 84.0724 115.613 54.8806 121.969 49.5555C122.372 49.1929 122.848 48.9212 123.365 48.7586C123.881 48.5959 124.426 48.5462 124.963 48.6126C128.747 49.1424 132.879 55.1783 137.595 67.0654C140.953 75.5288 143.373 83.9676 143.397 84.0519L141.075 84.7231C141.051 84.6398 138.659 76.303 135.345 67.9512C129.492 53.2051 125.902 51.1989 124.631 51.021C124.426 50.9988 124.22 51.0235 124.027 51.0933C123.834 51.163 123.659 51.2761 123.515 51.4238C118.826 55.3527 116.816 78.7903 116.438 87.4899Z" fill="black"/>
<path d="M95.1065 71.7388L92.6895 132.713L172.436 124.071L162.578 65.2021L95.1065 71.7388Z" fill="#FFBA49"/>
<path d="M162.578 65.2021L156.712 65.7703L164.519 117.392L92.9688 125.675L92.6895 132.713L172.436 124.071L162.578 65.2021Z" fill="#FFA113"/>
<path d="M205.66 170.05L202.344 169.679C202.372 169.417 205.126 143.333 196.195 133.579C195.145 132.393 193.842 131.46 192.384 130.853C190.925 130.245 189.349 129.977 187.773 130.069C168.318 130.626 159.171 164.214 159.081 164.553L155.857 163.686C157.654 157.413 160.15 151.366 163.297 145.657C170.075 133.527 178.505 126.976 187.678 126.714C189.731 126.608 191.783 126.965 193.681 127.76C195.58 128.555 197.278 129.766 198.651 131.307C208.609 142.186 205.785 168.917 205.66 170.05Z" fill="#FFBA49"/>
<path d="M146.482 146.128L216.877 154.527L215.785 266.827L121.816 255.568L146.482 146.128Z" fill="#DB3022"/>
<path d="M216.877 154.527L209.905 153.695L206.509 257.603L123.14 249.695L121.816 255.568L215.785 266.827L216.877 154.527Z" fill="#D10505"/>
<path d="M234.518 190.217C237.724 190.892 240.778 188.314 241.34 184.453C241.938 185.48 242.536 186.508 243.134 187.537C242.573 191.397 239.516 193.976 236.314 193.301C235.716 192.272 235.117 191.244 234.518 190.217Z" fill="#FFBA49"/>
<path d="M139.842 272.808C143.048 273.483 146.102 270.904 146.664 267.044C147.262 268.071 147.86 269.099 148.458 270.128C147.897 273.988 144.841 276.568 141.638 275.893C141.04 274.863 140.441 273.835 139.842 272.808Z" fill="#9B9B9B"/>
<path d="M241.678 125.587C243.022 129.155 246.513 130.741 249.478 129.122C249.111 130.297 248.743 131.473 248.374 132.648C245.409 134.264 241.919 132.681 240.576 129.111C240.946 127.938 241.313 126.763 241.678 125.587Z" fill="#FF5C00"/>
<path d="M220.932 100.243C221.473 96.3773 219.311 92.7173 216.102 92.0661C216.95 91.3377 217.8 90.6095 218.65 89.8815C221.858 90.5326 224.021 94.1942 223.481 98.0581C222.632 98.7867 221.783 99.5149 220.932 100.243Z" fill="#021193"/>
<path d="M28.2819 84.6429C28.8229 80.7774 26.661 77.1173 23.4512 76.4661C24.2999 75.7377 25.1495 75.0096 26 74.2817C29.2073 74.9327 31.3705 78.5942 30.8307 82.4583C29.9819 83.1866 29.1323 83.9149 28.2819 84.6429Z" fill="#FF5C00"/>
<path d="M93.9302 221.608C94.4714 217.742 92.3093 214.082 89.0996 213.431C89.9484 212.702 90.7979 211.974 91.6483 211.246C94.8556 211.897 97.0188 215.559 96.479 219.424C95.6302 220.151 94.7806 220.879 93.9302 221.608Z" fill="#FF5C00"/>
<path d="M262.312 76.7562C265.498 77.5643 268.621 75.1104 269.292 71.2732C269.861 72.3245 270.431 73.3766 271 74.4295C270.331 78.263 267.205 80.7183 264.022 79.9125C263.452 78.8612 262.882 77.8091 262.312 76.7562Z" fill="#FFBA49"/>
<path d="M7.58382 124.241C6.44231 120.57 3.0479 118.708 0 120.085C0.431147 118.943 0.86293 117.801 1.29535 116.656C4.34072 115.281 7.73702 117.141 8.87916 120.811C8.44803 121.954 8.01625 123.097 7.58382 124.241Z" fill="#FFBA49"/>
<path d="M86.6861 168.958C86.911 172.867 89.7254 175.817 92.9709 175.544C92.2864 176.494 91.6008 177.439 90.9176 178.388C87.6708 178.657 84.8576 175.706 84.6328 171.797C85.3173 170.852 86.0017 169.906 86.6861 168.958Z" fill="#DB3022"/>
<path d="M63.748 97.9288C66.9714 97.3901 69.2212 93.805 68.7727 89.9226C69.6054 90.6807 70.4368 91.4379 71.2671 92.1942C71.7143 96.0782 69.4658 99.6609 66.2425 100.202C65.4122 99.4436 64.5807 98.6859 63.748 97.9288Z" fill="#021193"/>
<path d="M195.187 50.3186C191.007 50.4577 194.012 57.862 189.831 58.0042C189.033 57.1968 188.235 56.3895 187.436 55.5821C191.616 55.4423 188.612 48.038 192.791 47.896C193.591 48.7033 194.389 49.5108 195.187 50.3186Z" fill="#FF5C00"/>
<path d="M202.784 244.927C198.716 243.767 200.034 251.853 195.964 250.694C195.365 249.666 194.766 248.637 194.168 247.609C198.238 248.77 196.918 240.683 200.989 241.844C201.587 242.872 202.185 243.9 202.784 244.927Z" fill="#FFBA49"/>
<path d="M81.7964 255.454C78.9229 259.115 85.3941 261.797 82.5205 265.455C81.4827 265.562 80.4437 265.674 79.4059 265.779C82.2796 262.121 75.8082 259.443 78.6819 255.782C79.7209 255.675 80.7591 255.566 81.7964 255.454Z" fill="#021193"/>
<path d="M174.879 2.70406C170.787 3.75092 174.848 10.3852 170.759 11.4298C169.855 10.8077 168.945 10.188 168.041 9.56443C172.132 8.52044 168.068 1.88857 172.16 0.84166C173.067 1.4652 173.973 2.086 174.879 2.70406Z" fill="#DB3022"/>
<path d="M43.5731 24.5121C45.5857 28.9288 49.6879 22.3319 51.6974 26.7472C51.464 27.9697 51.2335 29.1967 50.9988 30.4199C48.9893 26.0031 44.8895 32.6022 42.877 28.1855C43.111 26.9592 43.3431 25.7347 43.5731 24.5121Z" fill="#9B9B9B"/>
<path d="M8.87891 198.172C9.41873 198.074 9.90711 197.788 10.2588 197.364C10.6105 196.941 10.8031 196.406 10.8031 195.854C10.8031 195.302 10.6105 194.768 10.2588 194.344C9.90711 193.921 9.41873 193.635 8.87891 193.537" fill="black"/>
<path d="M227.285 19.0918C225.526 19.0918 224.096 17.3685 224.096 15.2501C224.096 13.1317 225.526 11.4085 227.285 11.4085C229.044 11.4085 230.474 13.1317 230.474 15.2501C230.474 17.3685 229.044 19.0918 227.285 19.0918ZM227.285 12.9323C226.726 12.9879 226.212 13.2619 225.852 13.6953C225.492 14.1288 225.316 14.6871 225.361 15.2501C225.31 15.5336 225.321 15.8248 225.394 16.1033C225.468 16.3818 225.601 16.6407 225.784 16.8618C225.968 17.0828 226.197 17.2607 226.457 17.3827C226.716 17.5047 226.999 17.568 227.285 17.568C227.571 17.568 227.854 17.5047 228.113 17.3827C228.373 17.2607 228.602 17.0828 228.786 16.8618C228.969 16.6407 229.102 16.3818 229.176 16.1033C229.249 15.8248 229.26 15.5336 229.209 15.2501C229.254 14.6871 229.078 14.1288 228.718 13.6954C228.358 13.2619 227.844 12.9879 227.285 12.9323Z" fill="black"/>
<path d="M41.6229 164.64C39.8643 164.64 38.4336 162.917 38.4336 160.798C38.4336 158.68 39.8643 156.957 41.6229 156.957C43.3815 156.957 44.8122 158.68 44.8122 160.798C44.8122 162.917 43.3815 164.64 41.6229 164.64ZM41.6229 158.481C41.0831 158.579 40.5947 158.865 40.243 159.288C39.8913 159.712 39.6987 160.246 39.6987 160.798C39.6987 161.35 39.8913 161.885 40.243 162.308C40.5947 162.732 41.0831 163.018 41.6229 163.116C42.1627 163.018 42.6511 162.732 43.0028 162.308C43.3545 161.885 43.5471 161.35 43.5471 160.798C43.5471 160.246 43.3545 159.712 43.0028 159.288C42.6511 158.865 42.1627 158.579 41.6229 158.481Z" fill="black"/>
</svg>
