<svg width="306" height="201" viewBox="0 0 306 201" fill="none" xmlns="http://www.w3.org/2000/svg">
<path d="M0 8C0 3.58172 3.58172 0 8 0H298C302.418 0 306 3.58172 306 8V193C306 197.418 302.418 201 298 201H8C3.58172 201 0 197.418 0 193V8Z" fill="#151522"/>
<mask id="mask0" mask-type="alpha" maskUnits="userSpaceOnUse" x="0" y="0" width="306" height="201">
<path d="M0 8C0 3.58172 3.58172 0 8 0H298C302.418 0 306 3.58172 306 8V193C306 197.418 302.418 201 298 201H8C3.58172 201 0 197.418 0 193V8Z" fill="#151522"/>
</mask>
<g mask="url(#mask0)">
<path opacity="0.1" d="M1069.18 171.995C1069.18 168.496 1067.36 165.254 1064.36 163.449C981.427 113.506 884.336 61.6411 773.696 74.3323C694.072 83.4618 641.68 133.805 571.633 158.324C480.644 190.147 409.31 149.507 327.899 122.171C218.04 85.3399 82.3064 95.3563 -15.6875 147.525C-35.1444 157.908 -54.071 170.011 -73.1104 181.929C-81.7931 187.364 -77.9221 201.363 -67.6786 201.363H1059.18C1064.7 201.363 1069.18 196.886 1069.18 191.363V171.995Z" fill="white"/>
<path opacity="0.1" d="M698.25 201.33C698.25 201.345 698.235 201.355 698.221 201.348C692.155 198.327 686.09 195.358 680.095 192.389C536.356 122.484 363.384 86.4351 191.841 90.5042C44.7302 94.044 -97.4077 127.814 -223.088 183.123C-232.789 187.392 -229.666 201.31 -219.067 201.31H698.23C698.241 201.31 698.25 201.319 698.25 201.33Z" fill="white"/>
</g>
<circle cx="45.6061" cy="31.1276" r="11.1276" fill="#F79E1B"/>
<circle cx="31.1276" cy="31.1276" r="11.1276" fill="#EB001B"/>
<path d="M23.0179 88.1392H23.9542L23.7454 90.2782L25.5171 89.0106L25.9924 89.8173L23.9974 90.7175L25.9924 91.6034L25.5171 92.4172L23.7454 91.1641L23.9542 93.3031H23.0179L23.2412 91.1641L21.4695 92.4172L20.9941 91.6034L23.0179 90.7175L20.9941 89.8173L21.4695 89.0106L23.2412 90.2782L23.0179 88.1392ZM33.3746 88.1392H34.3109L34.1021 90.2782L35.8738 89.0106L36.3491 89.8173L34.3541 90.7175L36.3491 91.6034L35.8738 92.4172L34.1021 91.1641L34.3109 93.3031H33.3746L33.5979 91.1641L31.8262 92.4172L31.3508 91.6034L33.3746 90.7175L31.3508 89.8173L31.8262 89.0106L33.5979 90.2782L33.3746 88.1392ZM43.7313 88.1392H44.6676L44.4587 90.2782L46.2305 89.0106L46.7058 89.8173L44.7108 90.7175L46.7058 91.6034L46.2305 92.4172L44.4587 91.1641L44.6676 93.3031H43.7313L43.9546 91.1641L42.1829 92.4172L41.7075 91.6034L43.7313 90.7175L41.7075 89.8173L42.1829 89.0106L43.9546 90.2782L43.7313 88.1392ZM54.088 88.1392H55.0243L54.8154 90.2782L56.5872 89.0106L57.0625 89.8173L55.0675 90.7175L57.0625 91.6034L56.5872 92.4172L54.8154 91.1641L55.0243 93.3031H54.088L54.3113 91.1641L52.5396 92.4172L52.0642 91.6034L54.088 90.7175L52.0642 89.8173L52.5396 89.0106L54.3113 90.2782L54.088 88.1392ZM68.5355 88.1392H69.4718L69.2629 90.2782L71.0347 89.0106L71.51 89.8173L69.515 90.7175L71.51 91.6034L71.0347 92.4172L69.2629 91.1641L69.4718 93.3031H68.5355L68.7588 91.1641L66.9871 92.4172L66.5117 91.6034L68.5355 90.7175L66.5117 89.8173L66.9871 89.0106L68.7588 90.2782L68.5355 88.1392ZM78.8922 88.1392H79.8285L79.6196 90.2782L81.3914 89.0106L81.8667 89.8173L79.8717 90.7175L81.8667 91.6034L81.3914 92.4172L79.6196 91.1641L79.8285 93.3031H78.8922L79.1155 91.1641L77.3438 92.4172L76.8684 91.6034L78.8922 90.7175L76.8684 89.8173L77.3438 89.0106L79.1155 90.2782L78.8922 88.1392ZM89.2489 88.1392H90.1852L89.9763 90.2782L91.748 89.0106L92.2234 89.8173L90.2284 90.7175L92.2234 91.6034L91.748 92.4172L89.9763 91.1641L90.1852 93.3031H89.2489L89.4722 91.1641L87.7004 92.4172L87.2251 91.6034L89.2489 90.7175L87.2251 89.8173L87.7004 89.0106L89.4722 90.2782L89.2489 88.1392ZM99.6056 88.1392H100.542L100.333 90.2782L102.105 89.0106L102.58 89.8173L100.585 90.7175L102.58 91.6034L102.105 92.4172L100.333 91.1641L100.542 93.3031H99.6056L99.8289 91.1641L98.0571 92.4172L97.5818 91.6034L99.6056 90.7175L97.5818 89.8173L98.0571 89.0106L99.8289 90.2782L99.6056 88.1392ZM114.053 88.1392H114.989L114.781 90.2782L116.552 89.0106L117.028 89.8173L115.033 90.7175L117.028 91.6034L116.552 92.4172L114.781 91.1641L114.989 93.3031H114.053L114.276 91.1641L112.505 92.4172L112.029 91.6034L114.053 90.7175L112.029 89.8173L112.505 89.0106L114.276 90.2782L114.053 88.1392ZM124.41 88.1392H125.346L125.137 90.2782L126.909 89.0106L127.384 89.8173L125.389 90.7175L127.384 91.6034L126.909 92.4172L125.137 91.1641L125.346 93.3031H124.41L124.633 91.1641L122.861 92.4172L122.386 91.6034L124.41 90.7175L122.386 89.8173L122.861 89.0106L124.633 90.2782L124.41 88.1392ZM134.766 88.1392H135.703L135.494 90.2782L137.266 89.0106L137.741 89.8173L135.746 90.7175L137.741 91.6034L137.266 92.4172L135.494 91.1641L135.703 93.3031H134.766L134.99 91.1641L133.218 92.4172L132.743 91.6034L134.766 90.7175L132.743 89.8173L133.218 89.0106L134.99 90.2782L134.766 88.1392ZM145.123 88.1392H146.059L145.851 90.2782L147.622 89.0106L148.098 89.8173L146.103 90.7175L148.098 91.6034L147.622 92.4172L145.851 91.1641L146.059 93.3031H145.123L145.346 91.1641L143.575 92.4172L143.099 91.6034L145.123 90.7175L143.099 89.8173L143.575 89.0106L145.346 90.2782L145.123 88.1392ZM158.865 90.8616H157.785C157.981 89.9877 158.358 89.3155 158.915 88.845C159.472 88.3744 160.13 88.1392 160.889 88.1392C161.441 88.1392 161.955 88.2664 162.43 88.5209C162.91 88.7705 163.28 89.109 163.539 89.5364C163.803 89.9637 163.935 90.4102 163.935 90.876C163.935 91.7882 163.481 92.5109 162.574 93.0438C163.083 93.2503 163.501 93.5528 163.827 93.9513C164.288 94.5131 164.519 95.142 164.519 95.8383C164.519 96.4384 164.36 97.0122 164.043 97.5596C163.726 98.1021 163.294 98.5223 162.747 98.8199C162.199 99.1176 161.587 99.2665 160.91 99.2665C159.998 99.2665 159.237 99.0048 158.627 98.4814C158.017 97.9533 157.619 97.1803 157.432 96.1624H158.469C158.651 96.849 158.913 97.3459 159.254 97.6532C159.691 98.0421 160.248 98.2366 160.925 98.2366C161.693 98.2366 162.31 98.0061 162.776 97.5452C163.241 97.0842 163.474 96.5441 163.474 95.9247C163.474 95.5118 163.357 95.1252 163.121 94.7651C162.891 94.405 162.579 94.1337 162.185 93.9513C161.796 93.7688 161.191 93.656 160.37 93.6128V92.6405C160.855 92.6405 161.297 92.5565 161.695 92.3884C162.094 92.2156 162.382 91.9971 162.56 91.733C162.742 91.469 162.833 91.1809 162.833 90.8688C162.833 90.4078 162.648 90.0093 162.279 89.6732C161.914 89.3371 161.45 89.1691 160.889 89.1691C160.433 89.1691 160.039 89.2987 159.708 89.558C159.376 89.8125 159.095 90.247 158.865 90.8616ZM167.925 99.2665L167.054 98.7047L169.913 94.369C169.529 94.4939 169.169 94.5563 168.833 94.5563C167.992 94.5563 167.279 94.2538 166.694 93.6488C166.108 93.039 165.815 92.29 165.815 91.4017C165.815 90.792 165.957 90.2422 166.24 89.7524C166.523 89.2627 166.924 88.8714 167.443 88.5785C167.966 88.2856 168.525 88.1392 169.121 88.1392C169.707 88.1392 170.247 88.2808 170.741 88.5641C171.241 88.8474 171.632 89.2435 171.915 89.7524C172.198 90.2614 172.34 90.804 172.34 91.3801C172.34 91.8171 172.251 92.2756 172.074 92.7557C171.901 93.2311 171.589 93.8049 171.137 94.4771L167.925 99.2665ZM169.078 93.6272C169.697 93.6272 170.223 93.4111 170.655 92.979C171.092 92.5421 171.31 92.0163 171.31 91.4017C171.31 90.7872 171.092 90.2638 170.655 89.8317C170.223 89.3947 169.697 89.1763 169.078 89.1763C168.463 89.1763 167.937 89.3947 167.5 89.8317C167.068 90.2638 166.852 90.7872 166.852 91.4017C166.852 92.0163 167.068 92.5421 167.5 92.979C167.937 93.4111 168.463 93.6272 169.078 93.6272ZM179.557 88.1392H179.773V95.5214H181.055V96.5369H179.773V99H178.714V96.5369H173.651L179.557 88.1392ZM178.714 95.5214V91.1064L175.595 95.5214H178.714ZM182.517 88.4056H189.236L183.568 99.2665L182.697 98.8199L187.594 89.4067H182.517V88.4056Z" fill="white"/>
<path d="M29.0762 148.98L28.3965 149.502C28.0215 149.014 27.5703 148.645 27.043 148.395C26.5195 148.141 25.9434 148.014 25.3145 148.014C24.627 148.014 23.9902 148.18 23.4043 148.512C22.8184 148.84 22.3633 149.283 22.0391 149.842C21.7188 150.396 21.5586 151.021 21.5586 151.717C21.5586 152.768 21.918 153.645 22.6367 154.348C23.3594 155.051 24.2695 155.402 25.3672 155.402C26.5742 155.402 27.584 154.93 28.3965 153.984L29.0762 154.5C28.6465 155.047 28.1094 155.471 27.4648 155.771C26.8242 156.068 26.1074 156.217 25.3145 156.217C23.8066 156.217 22.6172 155.715 21.7461 154.711C21.0156 153.863 20.6504 152.84 20.6504 151.641C20.6504 150.379 21.0918 149.318 21.9746 148.459C22.8613 147.596 23.9707 147.164 25.3027 147.164C26.1074 147.164 26.834 147.324 27.4824 147.645C28.1309 147.961 28.6621 148.406 29.0762 148.98ZM37.0273 149.625V156H36.2188V154.904C35.875 155.322 35.4883 155.637 35.0586 155.848C34.6328 156.059 34.166 156.164 33.6582 156.164C32.7559 156.164 31.9844 155.838 31.3438 155.186C30.707 154.529 30.3887 153.732 30.3887 152.795C30.3887 151.877 30.7109 151.092 31.3555 150.439C32 149.787 32.7754 149.461 33.6816 149.461C34.2051 149.461 34.6777 149.572 35.0996 149.795C35.5254 150.018 35.8984 150.352 36.2188 150.797V149.625H37.0273ZM33.7461 150.252C33.2891 150.252 32.8672 150.365 32.4805 150.592C32.0938 150.814 31.7852 151.129 31.5547 151.535C31.3281 151.941 31.2148 152.371 31.2148 152.824C31.2148 153.273 31.3301 153.703 31.5605 154.113C31.791 154.523 32.0996 154.844 32.4863 155.074C32.877 155.301 33.2949 155.414 33.7402 155.414C34.1895 155.414 34.6152 155.301 35.0176 155.074C35.4199 154.848 35.7285 154.541 35.9434 154.154C36.1621 153.768 36.2715 153.332 36.2715 152.848C36.2715 152.109 36.0273 151.492 35.5391 150.996C35.0547 150.5 34.457 150.252 33.7461 150.252ZM38.5684 149.625H39.4062V150.557C39.6562 150.189 39.9199 149.916 40.1973 149.736C40.4746 149.553 40.7637 149.461 41.0645 149.461C41.291 149.461 41.5332 149.533 41.791 149.678L41.3633 150.369C41.1914 150.295 41.0469 150.258 40.9297 150.258C40.6562 150.258 40.3926 150.371 40.1387 150.598C39.8848 150.82 39.6914 151.168 39.5586 151.641C39.457 152.004 39.4062 152.738 39.4062 153.844V156H38.5684V149.625ZM48.8516 147.164V156H48.043V154.904C47.6992 155.322 47.3125 155.637 46.8828 155.848C46.457 156.059 45.9902 156.164 45.4824 156.164C44.5801 156.164 43.8086 155.838 43.168 155.186C42.5312 154.529 42.2129 153.732 42.2129 152.795C42.2129 151.877 42.5352 151.092 43.1797 150.439C43.8242 149.787 44.5996 149.461 45.5059 149.461C46.0293 149.461 46.502 149.572 46.9238 149.795C47.3496 150.018 47.7227 150.352 48.043 150.797V147.164H48.8516ZM45.5703 150.252C45.1133 150.252 44.6914 150.365 44.3047 150.592C43.918 150.814 43.6094 151.129 43.3789 151.535C43.1523 151.941 43.0391 152.371 43.0391 152.824C43.0391 153.273 43.1543 153.703 43.3848 154.113C43.6152 154.523 43.9238 154.844 44.3105 155.074C44.7012 155.301 45.1191 155.414 45.5645 155.414C46.0137 155.414 46.4395 155.301 46.8418 155.074C47.2441 154.848 47.5527 154.541 47.7676 154.154C47.9863 153.768 48.0957 153.332 48.0957 152.848C48.0957 152.109 47.8516 151.492 47.3633 150.996C46.8789 150.5 46.2812 150.252 45.5703 150.252ZM54.166 147.381H55.0332V150.996H59.416V147.381H60.2832V156H59.416V151.84H55.0332V156H54.166V147.381ZM65.2637 149.461C66.2441 149.461 67.0566 149.816 67.7012 150.527C68.2871 151.176 68.5801 151.943 68.5801 152.83C68.5801 153.721 68.2695 154.5 67.6484 155.168C67.0312 155.832 66.2363 156.164 65.2637 156.164C64.2871 156.164 63.4883 155.832 62.8672 155.168C62.25 154.5 61.9414 153.721 61.9414 152.83C61.9414 151.947 62.2344 151.182 62.8203 150.533C63.4648 149.818 64.2793 149.461 65.2637 149.461ZM65.2637 150.264C64.584 150.264 64 150.516 63.5117 151.02C63.0234 151.523 62.7793 152.133 62.7793 152.848C62.7793 153.309 62.8906 153.738 63.1133 154.137C63.3359 154.535 63.6367 154.844 64.0156 155.062C64.3945 155.277 64.8105 155.385 65.2637 155.385C65.7168 155.385 66.1328 155.277 66.5117 155.062C66.8906 154.844 67.1914 154.535 67.4141 154.137C67.6367 153.738 67.748 153.309 67.748 152.848C67.748 152.133 67.502 151.523 67.0098 151.02C66.5215 150.516 65.9395 150.264 65.2637 150.264ZM69.9863 147.164H70.8066V156H69.9863V147.164ZM78.875 147.164V156H78.0664V154.904C77.7227 155.322 77.3359 155.637 76.9062 155.848C76.4805 156.059 76.0137 156.164 75.5059 156.164C74.6035 156.164 73.832 155.838 73.1914 155.186C72.5547 154.529 72.2363 153.732 72.2363 152.795C72.2363 151.877 72.5586 151.092 73.2031 150.439C73.8477 149.787 74.623 149.461 75.5293 149.461C76.0527 149.461 76.5254 149.572 76.9473 149.795C77.373 150.018 77.7461 150.352 78.0664 150.797V147.164H78.875ZM75.5938 150.252C75.1367 150.252 74.7148 150.365 74.3281 150.592C73.9414 150.814 73.6328 151.129 73.4023 151.535C73.1758 151.941 73.0625 152.371 73.0625 152.824C73.0625 153.273 73.1777 153.703 73.4082 154.113C73.6387 154.523 73.9473 154.844 74.334 155.074C74.7246 155.301 75.1426 155.414 75.5879 155.414C76.0371 155.414 76.4629 155.301 76.8652 155.074C77.2676 154.848 77.5762 154.541 77.791 154.154C78.0098 153.768 78.1191 153.332 78.1191 152.848C78.1191 152.109 77.875 151.492 77.3867 150.996C76.9023 150.5 76.3047 150.252 75.5938 150.252ZM86.1055 153.885L86.7969 154.248C86.5703 154.693 86.3086 155.053 86.0117 155.326C85.7148 155.6 85.3809 155.809 85.0098 155.953C84.6387 156.094 84.2188 156.164 83.75 156.164C82.7109 156.164 81.8984 155.824 81.3125 155.145C80.7266 154.461 80.4336 153.689 80.4336 152.83C80.4336 152.021 80.6816 151.301 81.1777 150.668C81.8066 149.863 82.6484 149.461 83.7031 149.461C84.7891 149.461 85.6562 149.873 86.3047 150.697C86.7656 151.279 87 152.006 87.0078 152.877H81.2773C81.293 153.619 81.5293 154.229 81.9863 154.705C82.4434 155.178 83.0078 155.414 83.6797 155.414C84.0039 155.414 84.3184 155.357 84.623 155.244C84.9316 155.131 85.1934 154.98 85.4082 154.793C85.623 154.605 85.8555 154.303 86.1055 153.885ZM86.1055 152.168C85.9961 151.73 85.8359 151.381 85.625 151.119C85.418 150.857 85.1426 150.646 84.7988 150.486C84.4551 150.326 84.0938 150.246 83.7148 150.246C83.0898 150.246 82.5527 150.447 82.1035 150.85C81.7754 151.143 81.5273 151.582 81.3594 152.168H86.1055ZM88.2324 149.625H89.0703V150.557C89.3203 150.189 89.584 149.916 89.8613 149.736C90.1387 149.553 90.4277 149.461 90.7285 149.461C90.9551 149.461 91.1973 149.533 91.4551 149.678L91.0273 150.369C90.8555 150.295 90.7109 150.258 90.5938 150.258C90.3203 150.258 90.0566 150.371 89.8027 150.598C89.5488 150.82 89.3555 151.168 89.2227 151.641C89.1211 152.004 89.0703 152.738 89.0703 153.844V156H88.2324V149.625ZM95.6211 156V147.381H95.8086L101.539 153.979V147.381H102.389V156H102.195L96.5117 149.484V156H95.6211ZM110.715 149.625V156H109.906V154.904C109.562 155.322 109.176 155.637 108.746 155.848C108.32 156.059 107.854 156.164 107.346 156.164C106.443 156.164 105.672 155.838 105.031 155.186C104.395 154.529 104.076 153.732 104.076 152.795C104.076 151.877 104.398 151.092 105.043 150.439C105.688 149.787 106.463 149.461 107.369 149.461C107.893 149.461 108.365 149.572 108.787 149.795C109.213 150.018 109.586 150.352 109.906 150.797V149.625H110.715ZM107.434 150.252C106.977 150.252 106.555 150.365 106.168 150.592C105.781 150.814 105.473 151.129 105.242 151.535C105.016 151.941 104.902 152.371 104.902 152.824C104.902 153.273 105.018 153.703 105.248 154.113C105.479 154.523 105.787 154.844 106.174 155.074C106.564 155.301 106.982 155.414 107.428 155.414C107.877 155.414 108.303 155.301 108.705 155.074C109.107 154.848 109.416 154.541 109.631 154.154C109.85 153.768 109.959 153.332 109.959 152.848C109.959 152.109 109.715 151.492 109.227 150.996C108.742 150.5 108.145 150.252 107.434 150.252ZM112.561 149.625H113.375V150.727C113.66 150.32 113.953 150.023 114.254 149.836C114.668 149.586 115.104 149.461 115.561 149.461C115.869 149.461 116.162 149.521 116.439 149.643C116.717 149.764 116.943 149.926 117.119 150.129C117.295 150.328 117.447 150.615 117.576 150.99C117.85 150.49 118.191 150.111 118.602 149.854C119.012 149.592 119.453 149.461 119.926 149.461C120.367 149.461 120.756 149.572 121.092 149.795C121.432 150.018 121.684 150.328 121.848 150.727C122.012 151.125 122.094 151.723 122.094 152.52V156H121.256V152.52C121.256 151.836 121.207 151.367 121.109 151.113C121.012 150.855 120.844 150.648 120.605 150.492C120.371 150.336 120.09 150.258 119.762 150.258C119.363 150.258 118.998 150.375 118.666 150.609C118.338 150.844 118.098 151.156 117.945 151.547C117.793 151.938 117.717 152.59 117.717 153.504V156H116.902V152.736C116.902 151.967 116.854 151.445 116.756 151.172C116.662 150.895 116.496 150.674 116.258 150.51C116.02 150.342 115.736 150.258 115.408 150.258C115.029 150.258 114.674 150.373 114.342 150.604C114.014 150.83 113.77 151.137 113.609 151.523C113.453 151.91 113.375 152.502 113.375 153.299V156H112.561V149.625ZM129.195 153.885L129.887 154.248C129.66 154.693 129.398 155.053 129.102 155.326C128.805 155.6 128.471 155.809 128.1 155.953C127.729 156.094 127.309 156.164 126.84 156.164C125.801 156.164 124.988 155.824 124.402 155.145C123.816 154.461 123.523 153.689 123.523 152.83C123.523 152.021 123.771 151.301 124.268 150.668C124.896 149.863 125.738 149.461 126.793 149.461C127.879 149.461 128.746 149.873 129.395 150.697C129.855 151.279 130.09 152.006 130.098 152.877H124.367C124.383 153.619 124.619 154.229 125.076 154.705C125.533 155.178 126.098 155.414 126.77 155.414C127.094 155.414 127.408 155.357 127.713 155.244C128.021 155.131 128.283 154.98 128.498 154.793C128.713 154.605 128.945 154.303 129.195 153.885ZM129.195 152.168C129.086 151.73 128.926 151.381 128.715 151.119C128.508 150.857 128.232 150.646 127.889 150.486C127.545 150.326 127.184 150.246 126.805 150.246C126.18 150.246 125.643 150.447 125.193 150.85C124.865 151.143 124.617 151.582 124.449 152.168H129.195Z" fill="#999999"/>
<path d="M25.6177 167.406L30.5583 178H29.4204L27.7567 174.514H23.1906L21.5341 178H20.3529L25.3584 167.406H25.6177ZM25.488 169.653L23.6659 173.491H27.2886L25.488 169.653ZM32.042 170.164H33.0503V171.568C33.4536 171.031 33.9001 170.63 34.3899 170.366C34.8796 170.097 35.4126 169.962 35.9888 169.962C36.5745 169.962 37.0931 170.111 37.5444 170.409C38.0006 170.707 38.3367 171.108 38.5527 171.612C38.7688 172.116 38.8768 172.901 38.8768 173.967V178H37.8757V174.262C37.8757 173.359 37.8373 172.757 37.7605 172.454C37.6405 171.936 37.4148 171.547 37.0835 171.288C36.7522 171.024 36.3201 170.891 35.7871 170.891C35.1773 170.891 34.63 171.093 34.145 171.496C33.6649 171.9 33.348 172.399 33.1943 172.995C33.0983 173.383 33.0503 174.094 33.0503 175.126V178H32.042V170.164ZM47.7931 170.164H48.8086V176.408C48.8086 177.508 48.7126 178.312 48.5205 178.821C48.2564 179.541 47.7979 180.096 47.1449 180.485C46.4919 180.874 45.7069 181.068 44.7898 181.068C44.1176 181.068 43.5126 180.972 42.9749 180.78C42.4419 180.593 42.0074 180.338 41.6713 180.017C41.3352 179.7 41.0255 179.234 40.7422 178.619H41.8369C42.1346 179.138 42.5187 179.522 42.9893 179.772C43.4598 180.021 44.0432 180.146 44.7394 180.146C45.426 180.146 46.0046 180.017 46.4751 179.757C46.9504 179.503 47.2889 179.181 47.4906 178.792C47.6923 178.403 47.7931 177.777 47.7931 176.912V176.509C47.4138 176.989 46.9504 177.359 46.4031 177.618C45.8557 177.873 45.2747 178 44.6602 178C43.9399 178 43.2629 177.822 42.6292 177.467C41.9954 177.107 41.5056 176.624 41.1599 176.019C40.8142 175.414 40.6414 174.749 40.6414 174.024C40.6414 173.299 40.8214 172.625 41.1815 172.001C41.5416 171.372 42.0386 170.875 42.6724 170.51C43.311 170.145 43.9832 169.962 44.689 169.962C45.2747 169.962 45.8197 170.085 46.3239 170.33C46.8328 170.57 47.3226 170.968 47.7931 171.525V170.164ZM44.8186 170.935C44.2472 170.935 43.7167 171.074 43.2269 171.352C42.7372 171.626 42.3531 172.008 42.0746 172.498C41.7961 172.983 41.6569 173.508 41.6569 174.075C41.6569 174.934 41.9449 175.645 42.5211 176.207C43.0973 176.768 43.8439 177.049 44.761 177.049C45.6877 177.049 46.4319 176.771 46.9937 176.214C47.5602 175.657 47.8435 174.925 47.8435 174.017C47.8435 173.427 47.7139 172.901 47.4546 172.44C47.1953 171.974 46.828 171.607 46.3527 171.338C45.8773 171.069 45.366 170.935 44.8186 170.935ZM57.5664 175.4L58.4163 175.847C58.1378 176.394 57.8161 176.836 57.4512 177.172C57.0863 177.508 56.6757 177.765 56.2196 177.942C55.7635 178.115 55.2473 178.202 54.6711 178.202C53.394 178.202 52.3953 177.784 51.675 176.948C50.9548 176.108 50.5947 175.16 50.5947 174.104C50.5947 173.11 50.8996 172.224 51.5094 171.446C52.2824 170.457 53.3171 169.962 54.6135 169.962C55.9483 169.962 57.0142 170.469 57.8113 171.482C58.3778 172.197 58.6659 173.091 58.6755 174.161H51.6318C51.651 175.074 51.9415 175.823 52.5033 176.408C53.0651 176.989 53.7589 177.28 54.5847 177.28C54.9832 177.28 55.3698 177.21 55.7443 177.071C56.1236 176.932 56.4453 176.747 56.7094 176.516C56.9734 176.286 57.2591 175.914 57.5664 175.4ZM57.5664 173.29C57.432 172.752 57.2351 172.322 56.9758 172.001C56.7214 171.679 56.3829 171.42 55.9603 171.223C55.5378 171.026 55.0937 170.927 54.6279 170.927C53.8597 170.927 53.1995 171.175 52.6473 171.669C52.244 172.029 51.9391 172.57 51.7327 173.29H57.5664ZM60.4113 167.139H61.4196V178H60.4113V167.139ZM72.8206 167.139C74.4242 167.139 75.7662 167.675 76.8466 168.745C77.9269 169.816 78.467 171.134 78.467 172.699C78.467 174.25 77.9269 175.566 76.8466 176.646C75.771 177.726 74.4578 178.266 72.907 178.266C71.3369 178.266 70.0117 177.729 68.9314 176.653C67.8511 175.578 67.3109 174.276 67.3109 172.75C67.3109 171.732 67.5558 170.788 68.0455 169.919C68.5401 169.05 69.2123 168.371 70.0621 167.881C70.912 167.386 71.8315 167.139 72.8206 167.139ZM72.871 168.176C72.0883 168.176 71.3465 168.38 70.6455 168.788C69.9445 169.197 69.3971 169.746 69.0034 170.438C68.6097 171.129 68.4128 171.9 68.4128 172.75C68.4128 174.008 68.8474 175.071 69.7164 175.94C70.5903 176.804 71.6418 177.237 72.871 177.237C73.692 177.237 74.4506 177.037 75.1469 176.639C75.8479 176.24 76.3928 175.695 76.7817 175.004C77.1755 174.312 77.3723 173.544 77.3723 172.699C77.3723 171.859 77.1755 171.1 76.7817 170.423C76.3928 169.742 75.8431 169.197 75.1324 168.788C74.4218 168.38 73.668 168.176 72.871 168.176ZM80.4404 170.164H81.4415V171.604C81.84 171.057 82.2986 170.647 82.8171 170.373C83.3357 170.099 83.9143 169.962 84.5529 169.962C85.6668 169.962 86.6199 170.363 87.4121 171.165C88.2043 171.967 88.6005 172.932 88.6005 174.06C88.6005 175.213 88.2067 176.192 87.4193 176.999C86.6367 177.801 85.6908 178.202 84.5817 178.202C83.9575 178.202 83.3837 178.072 82.8604 177.813C82.337 177.553 81.8641 177.167 81.4415 176.653V180.866H80.4404V170.164ZM84.4736 170.935C83.5998 170.935 82.8628 171.24 82.2626 171.849C81.6672 172.459 81.3695 173.218 81.3695 174.125C81.3695 174.721 81.5015 175.256 81.7656 175.731C82.0345 176.207 82.4162 176.584 82.9108 176.862C83.4101 177.141 83.9359 177.28 84.488 177.28C85.0306 177.28 85.5396 177.141 86.0149 176.862C86.495 176.579 86.8767 176.185 87.16 175.681C87.4433 175.177 87.585 174.649 87.585 174.096C87.585 173.539 87.4433 173.011 87.16 172.512C86.8816 172.013 86.5046 171.626 86.0293 171.352C85.554 171.074 85.0354 170.935 84.4736 170.935ZM94.2037 169.962C95.4089 169.962 96.4076 170.399 97.1998 171.273C97.92 172.07 98.2802 173.014 98.2802 174.104C98.2802 175.198 97.8984 176.156 97.135 176.977C96.3764 177.794 95.3993 178.202 94.2037 178.202C93.0034 178.202 92.0215 177.794 91.2581 176.977C90.4994 176.156 90.1201 175.198 90.1201 174.104C90.1201 173.019 90.4802 172.077 91.2004 171.28C91.9927 170.402 92.9938 169.962 94.2037 169.962ZM94.2037 170.949C93.3683 170.949 92.6505 171.259 92.0503 171.878C91.4501 172.498 91.15 173.247 91.15 174.125C91.15 174.692 91.2869 175.22 91.5605 175.71C91.8342 176.199 92.2039 176.579 92.6697 176.848C93.1354 177.112 93.6468 177.244 94.2037 177.244C94.7607 177.244 95.2721 177.112 95.7378 176.848C96.2035 176.579 96.5732 176.199 96.8469 175.71C97.1206 175.22 97.2574 174.692 97.2574 174.125C97.2574 173.247 96.955 172.498 96.35 171.878C95.7498 171.259 95.0344 170.949 94.2037 170.949ZM100.153 167.139H101.168V173.319L104.791 170.164H106.275L101.975 173.902L106.527 178H105.101L101.168 174.478V178H100.153V167.139ZM107.434 170.164H108.45V173.823C108.45 174.716 108.498 175.33 108.594 175.667C108.738 176.147 109.011 176.526 109.415 176.804C109.823 177.083 110.308 177.222 110.87 177.222C111.431 177.222 111.907 177.088 112.296 176.819C112.689 176.545 112.961 176.187 113.109 175.746C113.21 175.443 113.261 174.802 113.261 173.823V170.164H114.291V174.01C114.291 175.09 114.163 175.904 113.909 176.452C113.659 176.999 113.28 177.429 112.771 177.741C112.267 178.048 111.633 178.202 110.87 178.202C110.106 178.202 109.467 178.048 108.954 177.741C108.445 177.429 108.063 176.997 107.809 176.444C107.559 175.887 107.434 175.052 107.434 173.938V170.164Z" fill="white"/>
<path d="M220.055 147.381H224.994V148.23H220.916V150.926H224.959V151.77H220.916V155.15H224.959V156H220.055V147.381ZM225.621 149.625H226.605L228.293 151.986L229.98 149.625H230.965L228.785 152.654L231.24 156H230.244L228.293 153.322L226.371 156H225.393L227.807 152.654L225.621 149.625ZM232.125 149.625H232.939V150.797C233.264 150.352 233.637 150.018 234.059 149.795C234.48 149.572 234.951 149.461 235.471 149.461C236.377 149.461 237.152 149.787 237.797 150.439C238.441 151.092 238.764 151.877 238.764 152.795C238.764 153.732 238.443 154.529 237.803 155.186C237.166 155.838 236.396 156.164 235.494 156.164C234.986 156.164 234.52 156.059 234.094 155.848C233.668 155.637 233.283 155.322 232.939 154.904V158.332H232.125V149.625ZM235.406 150.252C234.695 150.252 234.096 150.5 233.607 150.996C233.123 151.492 232.881 152.109 232.881 152.848C232.881 153.332 232.988 153.768 233.203 154.154C233.422 154.541 233.732 154.848 234.135 155.074C234.541 155.301 234.969 155.414 235.418 155.414C235.859 155.414 236.273 155.301 236.66 155.074C237.051 154.844 237.361 154.523 237.592 154.113C237.822 153.703 237.938 153.273 237.938 152.824C237.938 152.371 237.822 151.941 237.592 151.535C237.365 151.129 237.059 150.814 236.672 150.592C236.285 150.365 235.863 150.252 235.406 150.252ZM240.592 147C240.779 147 240.939 147.066 241.072 147.199C241.205 147.332 241.271 147.492 241.271 147.68C241.271 147.863 241.205 148.021 241.072 148.154C240.939 148.287 240.779 148.354 240.592 148.354C240.408 148.354 240.25 148.287 240.117 148.154C239.984 148.021 239.918 147.863 239.918 147.68C239.918 147.492 239.984 147.332 240.117 147.199C240.25 147.066 240.408 147 240.592 147ZM240.182 149.625H241.008V156H240.182V149.625ZM242.396 149.625H243.234V150.557C243.484 150.189 243.748 149.916 244.025 149.736C244.303 149.553 244.592 149.461 244.893 149.461C245.119 149.461 245.361 149.533 245.619 149.678L245.191 150.369C245.02 150.295 244.875 150.258 244.758 150.258C244.484 150.258 244.221 150.371 243.967 150.598C243.713 150.82 243.52 151.168 243.387 151.641C243.285 152.004 243.234 152.738 243.234 153.844V156H242.396V149.625ZM245.631 149.625H246.498L248.689 154.535L250.816 149.625H251.689L247.887 158.332H247.02L248.25 155.52L245.631 149.625ZM256.213 156V147.381H258C259.289 147.381 260.225 147.484 260.807 147.691C261.643 147.984 262.295 148.492 262.764 149.215C263.236 149.938 263.473 150.799 263.473 151.799C263.473 152.662 263.285 153.422 262.91 154.078C262.539 154.734 262.055 155.219 261.457 155.531C260.863 155.844 260.029 156 258.955 156H256.213ZM257.039 155.186H258.035C259.227 155.186 260.053 155.111 260.514 154.963C261.162 154.752 261.672 154.373 262.043 153.826C262.414 153.275 262.6 152.604 262.6 151.811C262.6 150.979 262.398 150.268 261.996 149.678C261.594 149.088 261.033 148.684 260.314 148.465C259.775 148.301 258.887 148.219 257.648 148.219H257.039V155.186ZM271.359 149.625V156H270.551V154.904C270.207 155.322 269.82 155.637 269.391 155.848C268.965 156.059 268.498 156.164 267.99 156.164C267.088 156.164 266.316 155.838 265.676 155.186C265.039 154.529 264.721 153.732 264.721 152.795C264.721 151.877 265.043 151.092 265.688 150.439C266.332 149.787 267.107 149.461 268.014 149.461C268.537 149.461 269.01 149.572 269.432 149.795C269.857 150.018 270.23 150.352 270.551 150.797V149.625H271.359ZM268.078 150.252C267.621 150.252 267.199 150.365 266.812 150.592C266.426 150.814 266.117 151.129 265.887 151.535C265.66 151.941 265.547 152.371 265.547 152.824C265.547 153.273 265.662 153.703 265.893 154.113C266.123 154.523 266.432 154.844 266.818 155.074C267.209 155.301 267.627 155.414 268.072 155.414C268.521 155.414 268.947 155.301 269.35 155.074C269.752 154.848 270.061 154.541 270.275 154.154C270.494 153.768 270.604 153.332 270.604 152.848C270.604 152.109 270.359 151.492 269.871 150.996C269.387 150.5 268.789 150.252 268.078 150.252ZM273.926 147.258H274.752V149.625H276.053V150.328H274.752V156H273.926V150.328H272.807V149.625H273.926V147.258ZM282.645 153.885L283.336 154.248C283.109 154.693 282.848 155.053 282.551 155.326C282.254 155.6 281.92 155.809 281.549 155.953C281.178 156.094 280.758 156.164 280.289 156.164C279.25 156.164 278.438 155.824 277.852 155.145C277.266 154.461 276.973 153.689 276.973 152.83C276.973 152.021 277.221 151.301 277.717 150.668C278.346 149.863 279.188 149.461 280.242 149.461C281.328 149.461 282.195 149.873 282.844 150.697C283.305 151.279 283.539 152.006 283.547 152.877H277.816C277.832 153.619 278.068 154.229 278.525 154.705C278.982 155.178 279.547 155.414 280.219 155.414C280.543 155.414 280.857 155.357 281.162 155.244C281.471 155.131 281.732 154.98 281.947 154.793C282.162 154.605 282.395 154.303 282.645 153.885ZM282.645 152.168C282.535 151.73 282.375 151.381 282.164 151.119C281.957 150.857 281.682 150.646 281.338 150.486C280.994 150.326 280.633 150.246 280.254 150.246C279.629 150.246 279.092 150.447 278.643 150.85C278.314 151.143 278.066 151.582 277.898 152.168H282.645Z" fill="#999999"/>
<path d="M219.468 172.706C219.468 171.309 219.617 170.229 219.915 169.465C220.217 168.702 220.642 168.123 221.189 167.73C221.737 167.336 222.349 167.139 223.026 167.139C223.713 167.139 224.334 167.338 224.891 167.737C225.448 168.131 225.888 168.724 226.209 169.516C226.536 170.308 226.699 171.372 226.699 172.706C226.699 174.036 226.538 175.095 226.217 175.883C225.9 176.67 225.46 177.265 224.899 177.669C224.337 178.067 223.713 178.266 223.026 178.266C222.349 178.266 221.739 178.072 221.197 177.683C220.654 177.294 220.229 176.716 219.922 175.947C219.619 175.174 219.468 174.094 219.468 172.706ZM220.469 172.728C220.469 173.924 220.575 174.829 220.786 175.443C221.002 176.053 221.319 176.516 221.737 176.833C222.155 177.15 222.596 177.309 223.062 177.309C223.533 177.309 223.972 177.155 224.38 176.848C224.788 176.536 225.098 176.07 225.309 175.45C225.573 174.697 225.705 173.789 225.705 172.728C225.705 171.662 225.588 170.791 225.352 170.114C225.117 169.432 224.791 168.935 224.373 168.623C223.96 168.306 223.523 168.147 223.062 168.147C222.591 168.147 222.15 168.306 221.737 168.623C221.324 168.935 221.009 169.398 220.793 170.013C220.577 170.623 220.469 171.528 220.469 172.728ZM234.434 167.406V168.414H230.66L230.135 171.302C230.595 171.168 231.011 171.1 231.38 171.1C232.346 171.1 233.14 171.424 233.764 172.073C234.393 172.716 234.708 173.542 234.708 174.55C234.708 175.246 234.547 175.885 234.225 176.466C233.904 177.047 233.467 177.493 232.915 177.806C232.367 178.113 231.733 178.266 231.013 178.266C230.154 178.266 229.429 178.005 228.838 177.481C228.248 176.953 227.895 176.271 227.779 175.436H228.867C228.949 175.844 229.085 176.175 229.277 176.43C229.474 176.684 229.734 176.891 230.055 177.049C230.382 177.203 230.723 177.28 231.078 177.28C231.774 177.28 232.372 177.016 232.871 176.488C233.371 175.959 233.62 175.299 233.62 174.507C233.62 173.792 233.395 173.211 232.943 172.764C232.492 172.318 231.889 172.094 231.136 172.094C230.511 172.094 229.755 172.284 228.867 172.663L229.846 167.406H234.434ZM241.384 167.139L236.984 179.44H235.882L240.275 167.139H241.384ZM243.523 170.726H242.508C242.537 169.679 242.885 168.82 243.552 168.147C244.224 167.475 245.053 167.139 246.037 167.139C247.012 167.139 247.799 167.454 248.399 168.083C249.004 168.712 249.307 169.453 249.307 170.308C249.307 170.908 249.163 171.472 248.875 172.001C248.586 172.524 248.027 173.235 247.196 174.132L244.56 176.977H249.451V178H242.256L246.303 173.628C247.124 172.75 247.657 172.099 247.902 171.677C248.152 171.249 248.277 170.8 248.277 170.33C248.277 169.734 248.053 169.223 247.607 168.796C247.165 168.364 246.623 168.147 245.979 168.147C245.302 168.147 244.738 168.373 244.287 168.824C243.84 169.276 243.586 169.91 243.523 170.726ZM251.95 169.862H250.87C251.066 168.988 251.443 168.316 252 167.845C252.557 167.374 253.215 167.139 253.974 167.139C254.526 167.139 255.04 167.266 255.515 167.521C255.995 167.771 256.365 168.109 256.624 168.536C256.888 168.964 257.02 169.41 257.02 169.876C257.02 170.788 256.566 171.511 255.659 172.044C256.168 172.25 256.586 172.553 256.912 172.951C257.373 173.513 257.604 174.142 257.604 174.838C257.604 175.438 257.445 176.012 257.128 176.56C256.811 177.102 256.379 177.522 255.832 177.82C255.284 178.118 254.672 178.266 253.995 178.266C253.083 178.266 252.322 178.005 251.712 177.481C251.102 176.953 250.704 176.18 250.517 175.162H251.554C251.736 175.849 251.998 176.346 252.339 176.653C252.776 177.042 253.333 177.237 254.01 177.237C254.778 177.237 255.395 177.006 255.861 176.545C256.326 176.084 256.559 175.544 256.559 174.925C256.559 174.512 256.442 174.125 256.206 173.765C255.976 173.405 255.664 173.134 255.27 172.951C254.881 172.769 254.276 172.656 253.455 172.613V171.641C253.94 171.641 254.382 171.556 254.78 171.388C255.179 171.216 255.467 170.997 255.645 170.733C255.827 170.469 255.918 170.181 255.918 169.869C255.918 169.408 255.733 169.009 255.364 168.673C254.999 168.337 254.535 168.169 253.974 168.169C253.517 168.169 253.124 168.299 252.792 168.558C252.461 168.812 252.18 169.247 251.95 169.862Z" fill="white"/>
<path d="M281.111 17L285 20.8889L274.889 31H271V27.1111L281.111 17Z" stroke="white" stroke-linecap="round" stroke-linejoin="round"/>
</svg>
