<svg width="53" height="53" viewBox="0 0 53 53" fill="none" xmlns="http://www.w3.org/2000/svg">
<path d="M0 0H53V53H0V0Z" fill="#4EAEFF"/>
<path d="M17.0802 21.4149L19.9065 23.6461M17.054 30.6024L19.889 28.3711M29.759 31.4249L32.5852 33.6561M36.0852 26.0349C36.0833 26.6221 36.0277 27.2078 35.919 27.7849C35.5348 29.9564 34.446 31.9409 32.821 33.4317C31.196 34.9226 29.1252 35.8367 26.9287 36.0327C24.7322 36.2288 22.5322 35.696 20.6688 34.5166C18.8054 33.3373 17.3824 31.577 16.6195 29.5078C15.8567 27.4387 15.7967 25.176 16.4486 23.0693C17.1005 20.9626 18.4282 19.1293 20.2264 17.8526C22.0245 16.576 24.1931 15.9272 26.397 16.0065C28.6008 16.0857 30.7172 16.8887 32.419 18.2911L29.9515 20.7849C28.8216 19.9278 27.4409 19.4666 26.0227 19.4724C24.7998 19.471 23.6009 19.8114 22.5611 20.4551C21.5213 21.0988 20.6821 22.0202 20.138 23.1154C19.594 24.2107 19.3668 25.4361 19.4821 26.6536C19.5974 27.8711 20.0506 29.0321 20.7906 30.0057C21.5305 30.9794 22.5278 31.7269 23.67 32.1639C24.8121 32.601 26.0537 32.7102 27.2546 32.4793C28.4555 32.2484 29.568 31.6865 30.4666 30.857C31.3652 30.0276 32.0141 28.9635 32.3402 27.7849H26.4602V24.2849H35.919C36.0232 24.8625 36.0788 25.4479 36.0852 26.0349Z" stroke="white" stroke-linecap="round" stroke-linejoin="round"/>
</svg>
