<svg width="17" height="17" viewBox="0 0 17 17" fill="none" xmlns="http://www.w3.org/2000/svg">
<path d="M12.25 1.00049L4.75 1.00049C2.67893 1.00049 1 2.67942 1 4.75049L1 12.2505C1 14.3216 2.67893 16.0005 4.75 16.0005H12.25C14.3211 16.0005 16 14.3216 16 12.2505L16 4.75049C16 2.67942 14.3211 1.00049 12.25 1.00049Z" stroke="#E0E0E0" stroke-linecap="round" stroke-linejoin="round"/>
<path d="M11.5 8.02821C11.5926 8.6524 11.486 9.28988 11.1953 9.84998C10.9047 10.4101 10.4449 10.8643 9.88124 11.148C9.3176 11.4317 8.67886 11.5304 8.05586 11.4302C7.43287 11.3299 6.85734 11.0358 6.41115 10.5896C5.96496 10.1434 5.67082 9.56787 5.57058 8.94487C5.47033 8.32188 5.56907 7.68313 5.85277 7.11949C6.13647 6.55585 6.59066 6.09602 7.15076 5.8054C7.71086 5.51477 8.34834 5.40816 8.97252 5.50071C9.60922 5.59513 10.1987 5.89181 10.6538 6.34694C11.1089 6.80208 11.4056 7.39152 11.5 8.02821Z" stroke="#E0E0E0" stroke-linecap="round" stroke-linejoin="round"/>
<path d="M12.625 4.37549H12.6325" stroke="#E0E0E0" stroke-linecap="round" stroke-linejoin="round"/>
</svg>
