<svg width="51" height="31" viewBox="0 0 51 31" fill="none" xmlns="http://www.w3.org/2000/svg">
<path d="M18.621 17.9373C18.2323 18.3554 17.8743 18.7218 17.5469 19.0363H29.7899C29.8776 18.9311 29.9653 18.8297 30.053 18.7206C30.282 18.4501 30.5034 18.1902 30.7195 17.9355L18.621 17.9373Z" fill="black"/>
<path d="M20.5506 15.7386C20.2232 16.1294 19.9094 16.4957 19.6094 16.8376H31.6633C31.9996 16.449 32.3196 16.0826 32.6234 15.7386H20.5506Z" fill="black"/>
<path d="M16.2344 20.1357C15.223 20.8331 14.2117 21.1881 13.2007 21.1881C12.0054 21.1881 10.9516 20.6549 10.0392 19.5884C9.12692 18.522 8.67088 17.2053 8.67112 15.6384C8.67112 12.6348 10.7898 9.97961 15.0273 7.67273L10.3978 0C6.81233 1.80616 4.18296 3.9761 2.50964 6.50983C0.836311 9.04355 -0.000233819 12.0183 4.9022e-08 15.4342C4.9022e-08 19.8061 1.28206 23.3518 3.84619 26.0712C6.41031 28.7906 9.65885 30.1502 13.5918 30.15C15.6129 30.15 17.4762 29.7641 19.1818 28.9924C20.8874 28.2206 22.6748 26.9082 24.5438 25.0553C25.1949 24.4211 26.6356 22.7807 28.8657 20.1343L16.2344 20.1357Z" fill="black"/>
<path d="M22.3667 13.5403C22.0692 13.8981 21.7703 14.2626 21.4609 14.6397H33.6064C33.9785 14.2292 34.3185 13.8628 34.6265 13.5403H22.3667Z" fill="black"/>
<path d="M46.7898 6.05086C44.4114 3.51597 41.5594 2.24864 38.2338 2.24887C35.9304 2.24887 33.6217 3.01058 31.3075 4.53399C29.3395 5.82986 26.6674 8.46554 23.291 12.4411H35.7333C35.9146 12.2744 36.0763 12.1345 36.2128 12.0289C36.9298 11.4844 37.6899 11.2123 38.493 11.2126C39.2961 11.2128 40.0189 11.594 40.6613 12.3562C41.3021 13.1179 41.6226 14.0973 41.6229 15.2945C41.6229 17.7545 39.9714 20.171 36.6685 22.5438L42.6321 29.3034C45.5655 26.7795 47.5864 24.4352 48.6947 22.2705C49.803 20.1058 50.357 17.8269 50.3568 15.4338C50.3582 11.7127 49.1692 8.58505 46.7898 6.05086Z" fill="black"/>
</svg>
