<svg width="48" height="48" viewBox="0 0 48 48" fill="none" xmlns="http://www.w3.org/2000/svg">
<path fill-rule="evenodd" clip-rule="evenodd" d="M0 4C0 1.79086 1.79086 0 4 0H44C46.2091 0 48 1.79086 48 4V44C48 46.2091 46.2091 48 44 48H4C1.79086 48 0 46.2091 0 44V4Z" fill="white"/>
<path d="M0.5 4C0.5 2.067 2.067 0.5 4 0.5H44C45.933 0.5 47.5 2.067 47.5 4V44C47.5 45.933 45.933 47.5 44 47.5H4C2.067 47.5 0.5 45.933 0.5 44V4Z" stroke="#E4E4E4" stroke-opacity="0.6"/>
<path d="M20.3501 15.405L20.3543 15.4067C20.4419 15.0337 20.7601 14.7592 21.1584 14.7592H32.5007C32.515 14.7592 32.5293 14.7533 32.5436 14.7542C32.302 10.7307 28.9267 8.86581 25.9489 8.86581H14.6065C14.2075 8.86581 13.8892 9.14786 13.8025 9.51998L13.7983 9.5183L8.84025 32.2821L8.85119 32.2829C8.83941 32.3368 8.81836 32.3882 8.81836 32.4463C8.81836 32.9118 9.1947 33.2806 9.66028 33.2806H16.4554L20.3501 15.405Z" fill="#1565C0"/>
<path d="M32.5437 14.7542C32.5883 15.4917 32.5395 16.294 32.3509 17.1806C31.2724 22.2279 27.3735 24.8547 22.5552 24.8547C22.5552 24.8547 19.6337 24.8547 18.924 24.8547C18.4853 24.8547 18.2782 25.1123 18.1831 25.3093L16.7182 32.0859L16.4614 33.289H16.4563L15.393 38.1688L15.4039 38.1696C15.3921 38.2235 15.3711 38.2748 15.3711 38.3329C15.3711 38.7985 15.7474 39.1749 16.213 39.1749H22.3868L22.3977 39.1664C22.7951 39.1605 23.1108 38.8768 23.1934 38.503L23.2085 38.4904L24.7341 31.4048C24.7341 31.4048 24.8401 30.7287 25.5507 30.7287C26.2613 30.7287 29.0683 30.7287 29.0683 30.7287C33.8866 30.7287 37.8251 28.1137 38.9044 23.0656C40.1184 17.3742 36.0587 14.7752 32.5437 14.7542Z" fill="#039BE5"/>
<path d="M21.1578 14.7592C20.7588 14.7592 20.4405 15.0337 20.3538 15.4067L20.3496 15.405L18.1816 25.3101C18.2768 25.1131 18.4839 24.8555 18.9225 24.8555C19.6331 24.8555 22.4881 24.8555 22.4881 24.8555C27.3063 24.8555 31.2709 22.2287 32.3494 17.1814C32.5389 16.2949 32.5869 15.4925 32.5422 14.755C32.5288 14.7533 32.5136 14.7592 32.5001 14.7592H21.1578Z" fill="#283593"/>
</svg>
