<svg width="48" height="48" viewBox="0 0 48 48" fill="none" xmlns="http://www.w3.org/2000/svg">
<path fill-rule="evenodd" clip-rule="evenodd" d="M0 4C0 1.79086 1.79086 0 4 0H44C46.2091 0 48 1.79086 48 4V44C48 46.2091 46.2091 48 44 48H4C1.79086 48 0 46.2091 0 44V4Z" fill="white"/>
<path d="M0.5 4C0.5 2.067 2.067 0.5 4 0.5H44C45.933 0.5 47.5 2.067 47.5 4V44C47.5 45.933 45.933 47.5 44 47.5H4C2.067 47.5 0.5 45.933 0.5 44V4Z" stroke="#E4E4E4" stroke-opacity="0.6"/>
<path d="M16.8732 18.9883L14.8058 19.4276L14.7963 26.2265C14.7963 27.4822 15.7416 28.2939 16.9973 28.2939C17.6944 28.2939 18.2053 28.165 18.487 28.0122V26.3984C18.2149 26.5082 16.878 26.8997 16.878 25.6488V22.6313H18.487V20.8265H16.878L16.8732 18.9883ZM21.1273 21.452L20.9984 20.8265H19.165V28.1411H21.2801V23.2186C21.7814 22.5597 22.6265 22.6886 22.8987 22.7745V20.8265C22.6122 20.7263 21.6239 20.5401 21.1273 21.452ZM25.5342 18L23.4048 18.4536V20.182L25.5342 19.7284V18ZM11.139 22.9798C11.139 22.6504 11.4159 22.5215 11.8599 22.5167C12.5045 22.5167 13.3257 22.7125 13.9703 23.061V21.0653C13.2994 20.8035 12.5848 20.6723 11.8647 20.6785C10.1459 20.6785 9 21.5761 9 23.0753C9 25.4244 12.2228 25.0424 12.2228 26.0546C12.2228 26.4462 11.8838 26.5751 11.4111 26.5751C10.7093 26.5751 9.80212 26.2838 9.09072 25.8971V27.8069C9.87851 28.1459 10.6759 28.2891 11.4064 28.2891C13.1682 28.2891 14.3809 27.5347 14.3809 26.0069C14.3809 23.4812 11.139 23.9347 11.139 22.9798ZM39.5523 24.5698C39.5523 22.3973 38.5019 20.6833 36.487 20.6833C34.4721 20.6833 33.2451 22.3973 33.2451 24.5554C33.2451 27.1098 34.6918 28.2891 36.7544 28.2891C37.7666 28.2891 38.5257 28.0599 39.1034 27.7401V26.1454C38.5257 26.4366 37.8621 26.6133 37.0217 26.6133C36.1958 26.6133 35.47 26.322 35.3745 25.3289H39.5236C39.5332 25.2191 39.5523 24.7751 39.5523 24.5698ZM35.3554 23.7676C35.3554 22.8127 35.9427 22.4117 36.4727 22.4117C36.9931 22.4117 37.5469 22.8127 37.5469 23.7676H35.3554ZM29.965 20.6833C29.1342 20.6833 28.5995 21.0748 28.3034 21.347L28.1936 20.8218H26.3268V30.6L28.4467 30.1512L28.4515 27.7544C28.757 27.9788 29.2106 28.2891 29.9507 28.2891C31.469 28.2891 32.8536 27.1814 32.8536 24.4886C32.8584 22.0249 31.4546 20.6833 29.965 20.6833ZM29.4589 26.5321C28.9623 26.5321 28.6663 26.3507 28.461 26.131L28.4467 22.9798C28.6663 22.7363 28.9719 22.5597 29.4589 22.5597C30.2324 22.5597 30.7671 23.4286 30.7671 24.5363C30.7719 25.6775 30.2467 26.5321 29.4589 26.5321ZM23.4095 28.1411H25.539V20.8265H23.4095V28.1411Z" fill="black"/>
</svg>
