<svg width="20" height="17" viewBox="0 0 20 17" fill="none" xmlns="http://www.w3.org/2000/svg">
<path d="M19 1.00889C18.2165 1.57356 17.349 2.00544 16.4309 2.2879C15.9382 1.70901 15.2833 1.29871 14.5548 1.11249C13.8264 0.926269 13.0596 0.973112 12.3581 1.24668C11.6565 1.52025 11.0542 2.00735 10.6324 2.6421C10.2107 3.27685 9.98993 4.02862 10 4.79574V5.63169C8.56215 5.66978 7.13741 5.34397 5.85264 4.68326C4.56788 4.02256 3.46299 3.04747 2.63636 1.84484C2.63636 1.84484 -0.636364 9.36838 6.72727 12.7122C5.04225 13.8808 3.03495 14.4668 1 14.3841C8.36364 18.5638 17.3636 14.3841 17.3636 4.77066C17.3629 4.53781 17.341 4.30554 17.2982 4.07683C18.1332 3.23544 18.7225 2.17313 19 1.00889V1.00889Z" stroke="#E0E0E0" stroke-linecap="round" stroke-linejoin="round"/>
</svg>
