<svg width="42" height="14" viewBox="0 0 42 14" fill="none" xmlns="http://www.w3.org/2000/svg">
<path d="M11.8323 0.00134277L8.71053 9.31191C8.71053 9.31191 7.91761 5.37347 7.83915 4.87893C6.06191 0.823983 3.43945 1.04985 3.43945 1.04985L6.5303 13.078V13.0756H10.288L15.4842 0.00134277H11.8323Z" fill="#1565C0"/>
<path d="M14.8086 13.0779H18.2216L20.2853 0.00125885H16.8295L14.8086 13.0779Z" fill="#1565C0"/>
<path d="M38.9639 0.00125885H35.3726L29.7734 13.0779H33.1639L33.8629 11.2103H38.1377L38.5015 13.0779H41.6078L38.9639 0.00125885ZM34.8091 8.71268L36.6672 3.7709L37.6396 8.71268H34.8091Z" fill="#1565C0"/>
<path d="M25.1274 3.81253C25.1274 3.09213 25.7194 2.55599 27.417 2.55599C28.5202 2.55599 29.7839 3.35723 29.7839 3.35723L30.3379 0.612324C30.3379 0.612324 28.7235 9.98351e-05 27.1388 9.98351e-05C23.5499 9.98351e-05 21.699 1.71671 21.699 3.88981C21.699 7.81993 26.4291 7.28141 26.4291 9.29997C26.4291 9.64591 26.1545 10.446 24.1847 10.446C22.209 10.446 20.9049 9.72199 20.9049 9.72199L20.3164 12.3563C20.3164 12.3563 21.5801 13.0767 24.0218 13.0767C26.4696 13.0767 29.8647 11.246 29.8647 8.61642C29.8647 5.45306 25.1274 5.22481 25.1274 3.81253Z" fill="#1565C0"/>
<path d="M8.29653 7.06872L7.14817 1.42437C7.14817 1.42437 6.62867 0.201106 5.27821 0.201106C3.92775 0.201106 -2.35813e-07 0.201106 -2.35813e-07 0.201106C-2.35813e-07 0.201106 6.72972 2.18876 8.29653 7.06872Z" fill="#FFC107"/>
</svg>
