<svg width="555" height="48" viewBox="0 0 555 48" fill="none" xmlns="http://www.w3.org/2000/svg">
<path d="M548 30L554 24L548 18" stroke="#999999" stroke-linecap="round" stroke-linejoin="round"/>
<path d="M79.875 19.5312L78.3438 20.9922C77.3021 19.8932 76.1302 19.3438 74.8281 19.3438C73.7292 19.3438 72.8021 19.7188 72.0469 20.4688C71.2969 21.2188 70.9219 22.1432 70.9219 23.2422C70.9219 24.0078 71.0885 24.6875 71.4219 25.2812C71.7552 25.875 72.2266 26.3411 72.8359 26.6797C73.4453 27.0182 74.1224 27.1875 74.8672 27.1875C75.5026 27.1875 76.0833 27.0703 76.6094 26.8359C77.1354 26.5964 77.7135 26.1641 78.3438 25.5391L79.8281 27.0859C78.9792 27.9141 78.1771 28.4896 77.4219 28.8125C76.6667 29.1302 75.8047 29.2891 74.8359 29.2891C73.0495 29.2891 71.5859 28.724 70.4453 27.5938C69.3099 26.4583 68.7422 25.0052 68.7422 23.2344C68.7422 22.0885 69 21.0703 69.5156 20.1797C70.0365 19.2891 70.7786 18.5729 71.7422 18.0312C72.7109 17.4896 73.7526 17.2188 74.8672 17.2188C75.8151 17.2188 76.7266 17.4193 77.6016 17.8203C78.4818 18.2214 79.2396 18.7917 79.875 19.5312ZM81.0625 20.5H82.8906V21.5703C83.0885 21.1484 83.3516 20.8281 83.6797 20.6094C84.0078 20.3906 84.3672 20.2812 84.7578 20.2812C85.0339 20.2812 85.3229 20.3542 85.625 20.5L84.9609 22.3359C84.7109 22.2109 84.5052 22.1484 84.3438 22.1484C84.0156 22.1484 83.737 22.3516 83.5078 22.7578C83.2839 23.1641 83.1719 23.9609 83.1719 25.1484L83.1797 25.5625V29H81.0625V20.5ZM95.2031 25.3672H88.3516C88.4505 25.9714 88.7135 26.4531 89.1406 26.8125C89.5729 27.1667 90.1224 27.3438 90.7891 27.3438C91.5859 27.3438 92.2708 27.0651 92.8438 26.5078L94.6406 27.3516C94.1927 27.987 93.6562 28.4583 93.0312 28.7656C92.4062 29.0677 91.6641 29.2188 90.8047 29.2188C89.4714 29.2188 88.3854 28.7995 87.5469 27.9609C86.7083 27.1172 86.2891 26.0625 86.2891 24.7969C86.2891 23.5 86.7057 22.4245 87.5391 21.5703C88.3776 20.7109 89.4271 20.2812 90.6875 20.2812C92.026 20.2812 93.1146 20.7109 93.9531 21.5703C94.7917 22.4245 95.2109 23.5547 95.2109 24.9609L95.2031 25.3672ZM93.0625 23.6875C92.9219 23.2135 92.6432 22.8281 92.2266 22.5312C91.8151 22.2344 91.3359 22.0859 90.7891 22.0859C90.1953 22.0859 89.6745 22.2526 89.2266 22.5859C88.9453 22.7943 88.6849 23.1615 88.4453 23.6875H93.0625ZM103.219 17.2188H105.344V29H103.219V28.1016C102.802 28.4974 102.383 28.7839 101.961 28.9609C101.544 29.1328 101.091 29.2188 100.602 29.2188C99.5026 29.2188 98.5521 28.7943 97.75 27.9453C96.9479 27.0911 96.5469 26.0312 96.5469 24.7656C96.5469 23.4531 96.9349 22.3776 97.7109 21.5391C98.487 20.7005 99.4297 20.2812 100.539 20.2812C101.049 20.2812 101.529 20.3776 101.977 20.5703C102.424 20.763 102.839 21.0521 103.219 21.4375V17.2188ZM100.977 22.25C100.315 22.25 99.7656 22.4844 99.3281 22.9531C98.8906 23.4167 98.6719 24.013 98.6719 24.7422C98.6719 25.4766 98.8932 26.0807 99.3359 26.5547C99.7839 27.0286 100.333 27.2656 100.984 27.2656C101.656 27.2656 102.214 27.0339 102.656 26.5703C103.099 26.1016 103.32 25.4896 103.32 24.7344C103.32 23.9948 103.099 23.3958 102.656 22.9375C102.214 22.4792 101.654 22.25 100.977 22.25ZM108.336 17C108.711 17 109.031 17.1354 109.297 17.4062C109.568 17.6771 109.703 18.0052 109.703 18.3906C109.703 18.7708 109.57 19.0964 109.305 19.3672C109.039 19.6328 108.721 19.7656 108.352 19.7656C107.971 19.7656 107.646 19.6302 107.375 19.3594C107.109 19.0833 106.977 18.75 106.977 18.3594C106.977 17.9844 107.109 17.6641 107.375 17.3984C107.641 17.1328 107.961 17 108.336 17ZM107.266 20.5H109.406V29H107.266V20.5ZM111.602 17.3672H113.727V20.5H114.992V22.3359H113.727V29H111.602V22.3359H110.508V20.5H111.602V17.3672ZM115.406 31.0469L120.57 17.1797H122.086L116.914 31.0469H115.406ZM123.742 17.5078H126.336C128.008 17.5078 129.25 17.7161 130.062 18.1328C130.875 18.5443 131.544 19.2161 132.07 20.1484C132.596 21.0807 132.859 22.1693 132.859 23.4141C132.859 24.2995 132.711 25.1146 132.414 25.8594C132.122 26.599 131.716 27.2135 131.195 27.7031C130.68 28.1927 130.12 28.5312 129.516 28.7188C128.911 28.9062 127.865 29 126.375 29H123.742V17.5078ZM125.922 19.6172V26.8594H126.938C127.938 26.8594 128.661 26.7448 129.109 26.5156C129.562 26.2865 129.932 25.901 130.219 25.3594C130.505 24.8177 130.648 24.151 130.648 23.3594C130.648 22.1406 130.307 21.1953 129.625 20.5234C129.01 19.9193 128.023 19.6172 126.664 19.6172H125.922ZM143.219 25.3672H136.367C136.466 25.9714 136.729 26.4531 137.156 26.8125C137.589 27.1667 138.138 27.3438 138.805 27.3438C139.602 27.3438 140.286 27.0651 140.859 26.5078L142.656 27.3516C142.208 27.987 141.672 28.4583 141.047 28.7656C140.422 29.0677 139.68 29.2188 138.82 29.2188C137.487 29.2188 136.401 28.7995 135.562 27.9609C134.724 27.1172 134.305 26.0625 134.305 24.7969C134.305 23.5 134.721 22.4245 135.555 21.5703C136.393 20.7109 137.443 20.2812 138.703 20.2812C140.042 20.2812 141.13 20.7109 141.969 21.5703C142.807 22.4245 143.227 23.5547 143.227 24.9609L143.219 25.3672ZM141.078 23.6875C140.938 23.2135 140.659 22.8281 140.242 22.5312C139.831 22.2344 139.352 22.0859 138.805 22.0859C138.211 22.0859 137.69 22.2526 137.242 22.5859C136.961 22.7943 136.701 23.1615 136.461 23.6875H141.078ZM147.07 17.2188V21.4375C147.456 21.0521 147.872 20.763 148.32 20.5703C148.768 20.3776 149.247 20.2812 149.758 20.2812C150.867 20.2812 151.81 20.7005 152.586 21.5391C153.362 22.3776 153.75 23.4531 153.75 24.7656C153.75 26.0312 153.349 27.0911 152.547 27.9453C151.745 28.7943 150.794 29.2188 149.695 29.2188C149.206 29.2188 148.75 29.1328 148.328 28.9609C147.906 28.7839 147.487 28.4974 147.07 28.1016V29H144.953V17.2188H147.07ZM149.312 22.25C148.641 22.25 148.083 22.4792 147.641 22.9375C147.198 23.3958 146.977 23.9948 146.977 24.7344C146.977 25.4896 147.198 26.1016 147.641 26.5703C148.083 27.0339 148.641 27.2656 149.312 27.2656C149.964 27.2656 150.51 27.0286 150.953 26.5547C151.401 26.0807 151.625 25.4766 151.625 24.7422C151.625 24.013 151.406 23.4167 150.969 22.9531C150.531 22.4844 149.979 22.25 149.312 22.25ZM156.352 17C156.727 17 157.047 17.1354 157.312 17.4062C157.583 17.6771 157.719 18.0052 157.719 18.3906C157.719 18.7708 157.586 19.0964 157.32 19.3672C157.055 19.6328 156.737 19.7656 156.367 19.7656C155.987 19.7656 155.661 19.6302 155.391 19.3594C155.125 19.0833 154.992 18.75 154.992 18.3594C154.992 17.9844 155.125 17.6641 155.391 17.3984C155.656 17.1328 155.977 17 156.352 17ZM155.281 20.5H157.422V29H155.281V20.5ZM159.617 17.3672H161.742V20.5H163.008V22.3359H161.742V29H159.617V22.3359H158.523V20.5H159.617V17.3672ZM179.438 19.5312L177.906 20.9922C176.865 19.8932 175.693 19.3438 174.391 19.3438C173.292 19.3438 172.365 19.7188 171.609 20.4688C170.859 21.2188 170.484 22.1432 170.484 23.2422C170.484 24.0078 170.651 24.6875 170.984 25.2812C171.318 25.875 171.789 26.3411 172.398 26.6797C173.008 27.0182 173.685 27.1875 174.43 27.1875C175.065 27.1875 175.646 27.0703 176.172 26.8359C176.698 26.5964 177.276 26.1641 177.906 25.5391L179.391 27.0859C178.542 27.9141 177.74 28.4896 176.984 28.8125C176.229 29.1302 175.367 29.2891 174.398 29.2891C172.612 29.2891 171.148 28.724 170.008 27.5938C168.872 26.4583 168.305 25.0052 168.305 23.2344C168.305 22.0885 168.562 21.0703 169.078 20.1797C169.599 19.2891 170.341 18.5729 171.305 18.0312C172.273 17.4896 173.315 17.2188 174.43 17.2188C175.378 17.2188 176.289 17.4193 177.164 17.8203C178.044 18.2214 178.802 18.7917 179.438 19.5312ZM187.406 20.5H189.531V29H187.406V28.1016C186.99 28.4974 186.57 28.7839 186.148 28.9609C185.732 29.1328 185.279 29.2188 184.789 29.2188C183.69 29.2188 182.74 28.7943 181.938 27.9453C181.135 27.0911 180.734 26.0312 180.734 24.7656C180.734 23.4531 181.122 22.3776 181.898 21.5391C182.674 20.7005 183.617 20.2812 184.727 20.2812C185.237 20.2812 185.716 20.3776 186.164 20.5703C186.612 20.763 187.026 21.0521 187.406 21.4375V20.5ZM185.164 22.25C184.503 22.25 183.953 22.4844 183.516 22.9531C183.078 23.4167 182.859 24.013 182.859 24.7422C182.859 25.4766 183.081 26.0807 183.523 26.5547C183.971 27.0286 184.521 27.2656 185.172 27.2656C185.844 27.2656 186.401 27.0339 186.844 26.5703C187.286 26.1016 187.508 25.4896 187.508 24.7344C187.508 23.9948 187.286 23.3958 186.844 22.9375C186.401 22.4792 185.841 22.25 185.164 22.25ZM191.188 20.5H193.016V21.5703C193.214 21.1484 193.477 20.8281 193.805 20.6094C194.133 20.3906 194.492 20.2812 194.883 20.2812C195.159 20.2812 195.448 20.3542 195.75 20.5L195.086 22.3359C194.836 22.2109 194.63 22.1484 194.469 22.1484C194.141 22.1484 193.862 22.3516 193.633 22.7578C193.409 23.1641 193.297 23.9609 193.297 25.1484L193.305 25.5625V29H191.188V20.5ZM203.094 17.2188H205.219V29H203.094V28.1016C202.677 28.4974 202.258 28.7839 201.836 28.9609C201.419 29.1328 200.966 29.2188 200.477 29.2188C199.378 29.2188 198.427 28.7943 197.625 27.9453C196.823 27.0911 196.422 26.0312 196.422 24.7656C196.422 23.4531 196.81 22.3776 197.586 21.5391C198.362 20.7005 199.305 20.2812 200.414 20.2812C200.924 20.2812 201.404 20.3776 201.852 20.5703C202.299 20.763 202.714 21.0521 203.094 21.4375V17.2188ZM200.852 22.25C200.19 22.25 199.641 22.4844 199.203 22.9531C198.766 23.4167 198.547 24.013 198.547 24.7422C198.547 25.4766 198.768 26.0807 199.211 26.5547C199.659 27.0286 200.208 27.2656 200.859 27.2656C201.531 27.2656 202.089 27.0339 202.531 26.5703C202.974 26.1016 203.195 25.4896 203.195 24.7344C203.195 23.9948 202.974 23.3958 202.531 22.9375C202.089 22.4792 201.529 22.25 200.852 22.25Z" fill="#151522"/>
<path fill-rule="evenodd" clip-rule="evenodd" d="M0 4C0 1.79086 1.79086 0 4 0H44C46.2091 0 48 1.79086 48 4V44C48 46.2091 46.2091 48 44 48H4C1.79086 48 0 46.2091 0 44V4Z" fill="white"/>
<path d="M0.5 4C0.5 2.067 2.067 0.5 4 0.5H44C45.933 0.5 47.5 2.067 47.5 4V44C47.5 45.933 45.933 47.5 44 47.5H4C2.067 47.5 0.5 45.933 0.5 44V4Z" stroke="#E4E4E4" stroke-opacity="0.6"/>
<path d="M12 21.6679H36.0043M17.3343 28.3357H17.3476M22.6686 28.3357H25.3357M16.0007 15H32.0036C34.2131 15 36.0043 16.7912 36.0043 19.0007V29.6693C36.0043 31.8788 34.2131 33.67 32.0036 33.67H16.0007C13.7912 33.67 12 31.8788 12 29.6693V19.0007C12 16.7912 13.7912 15 16.0007 15Z" stroke="#0D0D0D" stroke-width="2" stroke-linecap="round" stroke-linejoin="round"/>
</svg>
